<?xml version="1.0" encoding="UTF-8" standalone="no"?>
<!DOCTYPE svg PUBLIC "-//W3C//DTD SVG 1.1//EN" "http://www.w3.org/Graphics/SVG/1.1/DTD/svg11.dtd">
<svg width="100%" height="100%" viewBox="0 0 1198 776" version="1.1" xmlns="http://www.w3.org/2000/svg" xmlns:xlink="http://www.w3.org/1999/xlink" xml:space="preserve" xmlns:serif="http://www.serif.com/" style="fill-rule:evenodd;clip-rule:evenodd;stroke-linecap:round;stroke-linejoin:round;stroke-miterlimit:1.5;">
    <g transform="matrix(1,0,0,1,-9.84198,-632.081)">
        <g id="Short-bus" serif:id="Short bus" transform="matrix(0.905076,0,0,0.864161,-1294.32,1509.85)">
            <rect x="1440.94" y="-1015.75" width="1322.84" height="897.638" style="fill:none;"/>
            <g transform="matrix(1.54683,0,0,1.15719,916.038,-2081.82)">
                <rect x="472.441" y="944.882" width="472.441" height="236.22" style="fill:rgb(235,235,235);stroke:black;stroke-width:3.42px;"/>
            </g>
            <g transform="matrix(0.094704,0,0,1.15719,2037.87,-2081.82)">
                <path d="M944.882,1062.99L2598.43,1062.99" style="fill:none;stroke:black;stroke-width:29.36px;"/>
            </g>
            <g transform="matrix(1.10488,0,0,1.15719,1117.71,-2050.02)">
                <text x="539.061px" y="1027.57px" style="font-family:'IBMPlexSans', 'IBM Plex Sans', sans-serif;font-size:58.333px;">1-<tspan x="596.753px " y="1027.57px ">W</tspan>ir<tspan x="684.428px " y="1027.57px ">e</tspan> Bus</text>
                <text x="553.878px" y="1085.91px" style="font-family:'IBMPlexSans', 'IBM Plex Sans', sans-serif;font-size:58.333px;">Contr<tspan x="697.494px 730.161px 745.736px " y="1085.91px 1085.91px 1085.91px ">oll</tspan>er</text>
            </g>
            <g transform="matrix(1.10488,0,0,1.15719,1005.07,-2327.84)">
                <path d="M826.772,1653.54L944.882,1771.65L826.772,1889.76L708.661,1771.65L826.772,1653.54Z" style="fill:rgb(164,176,206);stroke:black;stroke-width:4.17px;"/>
                <g transform="matrix(4.16667,0,0,4.16667,826.772,1771.65)">
                    <g transform="matrix(1,0,0,1,-12,-12)">
                        <rect x="0" y="0" width="24" height="24" style="fill:none;fill-rule:nonzero;"/>
                        <path d="M15,13L15,5C15,3.34 13.66,2 12,2C10.34,2 9,3.34 9,5L9,13C7.79,13.91 7,15.37 7,17C7,19.76 9.24,22 12,22C14.76,22 17,19.76 17,17C17,15.37 16.21,13.91 15,13ZM11,5C11,4.45 11.45,4 12,4C12.55,4 13,4.45 13,5L12,5L12,6L13,6L13,8L12,8L12,9L13,9L13,11L11,11L11,5Z" style="fill-rule:nonzero;"/>
                    </g>
                </g>
            </g>
            <g transform="matrix(1.10488,0,0,1.15719,1292.17,-2327.84)">
                <path d="M826.772,1653.54L944.882,1771.65L826.772,1889.76L708.661,1771.65L826.772,1653.54Z" style="fill:rgb(164,176,206);stroke:black;stroke-width:4.17px;"/>
                <g transform="matrix(4.16667,0,0,4.16667,826.772,1771.65)">
                    <g transform="matrix(1,0,0,1,-12,-12)">
                        <rect x="0" y="0" width="24" height="24" style="fill:none;fill-rule:nonzero;"/>
                        <path d="M15,13L15,5C15,3.34 13.66,2 12,2C10.34,2 9,3.34 9,5L9,13C7.79,13.91 7,15.37 7,17C7,19.76 9.24,22 12,22C14.76,22 17,19.76 17,17C17,15.37 16.21,13.91 15,13ZM11,5C11,4.45 11.45,4 12,4C12.55,4 13,4.45 13,5L12,5L12,6L13,6L13,8L12,8L12,9L13,9L13,11L11,11L11,5Z" style="fill-rule:nonzero;"/>
                    </g>
                </g>
            </g>
            <g transform="matrix(1.10488,0,0,1.15719,1579.26,-2327.84)">
                <path d="M826.772,1653.54L944.882,1771.65L826.772,1889.76L708.661,1771.65L826.772,1653.54Z" style="fill:rgb(164,176,206);stroke:black;stroke-width:4.17px;"/>
                <g transform="matrix(4.16667,0,0,4.16667,826.772,1771.65)">
                    <g transform="matrix(1,0,0,1,-12,-12)">
                        <rect x="0" y="0" width="24" height="24" style="fill:none;fill-rule:nonzero;"/>
                        <path d="M15,13L15,5C15,3.34 13.66,2 12,2C10.34,2 9,3.34 9,5L9,13C7.79,13.91 7,15.37 7,17C7,19.76 9.24,22 12,22C14.76,22 17,19.76 17,17C17,15.37 16.21,13.91 15,13ZM11,5C11,4.45 11.45,4 12,4C12.55,4 13,4.45 13,5L12,5L12,6L13,6L13,8L12,8L12,9L13,9L13,11L11,11L11,5Z" style="fill-rule:nonzero;"/>
                    </g>
                </g>
            </g>
            <g transform="matrix(1.10488,0,0,1.15719,1005.07,-2327.84)">
                <path d="M1039.37,1275.59L874.016,1700.79" style="fill:none;stroke:black;stroke-width:4.17px;"/>
            </g>
            <g transform="matrix(1.10488,0,0,1.15719,1005.07,-2327.84)">
                <path d="M1086.61,1275.59L1086.61,1653.54" style="fill:none;stroke:black;stroke-width:4.17px;"/>
            </g>
            <g transform="matrix(1.10488,0,0,1.15719,1005.07,-2327.84)">
                <path d="M1133.86,1275.59L1299.21,1700.79" style="fill:none;stroke:black;stroke-width:4.17px;"/>
            </g>
            <g transform="matrix(1.10488,0,0,1.15719,1262.12,-2292.74)">
                <text x="182.478px" y="1761.68px" style="font-family:'IBMPlexSans', 'IBM Plex Sans', sans-serif;font-size:58.333px;">Sensors</text>
            </g>
            <g transform="matrix(1.10488,0,0,1.15719,2210.12,-2593.43)">
                <text x="182.478px" y="1761.68px" style="font-family:'IBMPlexSans', 'IBM Plex Sans', sans-serif;font-size:58.333px;">Dr<tspan x="242.736px " y="1761.68px ">o</tspan>p cables</text>
            </g>
            <g transform="matrix(1.10488,0,0,1.15719,1939.69,-2923.31)">
                <text x="182.478px" y="1761.68px" style="font-family:'IBMPlexSans', 'IBM Plex Sans', sans-serif;font-size:58.333px;">Bus</text>
            </g>
        </g>
    </g>
</svg>
