<?xml version="1.0" encoding="UTF-8" standalone="no"?>
<!DOCTYPE svg PUBLIC "-//W3C//DTD SVG 1.1//EN" "http://www.w3.org/Graphics/SVG/1.1/DTD/svg11.dtd">
<svg width="100%" height="100%" viewBox="0 0 1062 1062" version="1.1" xmlns="http://www.w3.org/2000/svg" xmlns:xlink="http://www.w3.org/1999/xlink" xml:space="preserve" xmlns:serif="http://www.serif.com/" style="fill-rule:evenodd;clip-rule:evenodd;stroke-linejoin:round;stroke-miterlimit:1.5;">
    <g transform="matrix(1,0,0,1,-192.889,-5872.89)">
        <g transform="matrix(3.76031,0,0,3.77707,-2435.85,5612.96)">
            <g id="Pictogram">
                <g transform="matrix(0.611351,0,0,0.60864,617.276,-1126.36)">
                    <circle cx="207.035" cy="2059.97" r="13.094" style="fill:white;stroke:white;stroke-width:20.54px;"/>
                </g>
                <g transform="matrix(0.739526,0,0,0.736246,438.587,-380.399)">
                    <path d="M545.365,618.65L543.01,618.635C506.159,618.635 470.267,629.801 440.01,650.525C437.569,652.214 435.933,654.834 435.486,657.768C435.039,660.702 435.821,663.69 437.648,666.029C437.637,666.049 437.643,666.055 437.648,666.062C441.185,670.589 447.644,671.561 452.357,668.276C458.525,663.936 465.152,659.856 472.627,656.494C488.357,649.417 507.773,640.701 543.01,640.257L545.086,640.27C632.802,641.381 703.674,712.939 703.674,800.92C703.674,888.901 632.802,960.459 545.086,961.57L543.01,961.583C454.338,961.583 382.347,889.592 382.347,800.92C382.347,776.083 388.105,751.632 399.11,729.468C401.641,724.407 399.792,718.251 394.891,715.421C394.899,715.408 394.899,715.408 394.899,715.407C392.309,713.912 389.213,713.562 386.354,714.442C383.496,715.321 381.132,717.351 379.831,720.044C377.88,723.949 375.832,728.187 374.564,731.252C365.457,753.271 360.725,776.937 360.725,800.92C360.725,901.526 442.405,983.205 543.01,983.205L545.365,983.19C644.885,981.929 725.295,900.741 725.295,800.92C725.295,701.099 644.885,619.91 545.365,618.65Z" style="fill:white;stroke:white;stroke-width:16.98px;stroke-miterlimit:2;"/>
                </g>
                <g transform="matrix(0.248863,0,0,0.247759,-45.9779,-429.782)">
                    <g id="Ring">
                        <circle cx="3561.1" cy="2580.14" r="506.907" style="fill:white;"/>
                    </g>
                </g>
                <g transform="matrix(0.787191,0,0,0.7837,412.794,-418.211)">
                    <path d="M669.685,891.732C668.701,887.697 658.86,884.64 653.15,882.874C639.281,878.586 618.882,879.106 603.543,881.102C562.527,886.441 521.654,910.285 473.622,909.449C438.954,908.846 420.472,894.094 420.472,894.094C434.049,916.355 456.097,936.36 490.226,953.15L553.937,962.011L609.449,947.244L659.055,907.087C659.055,907.087 670.669,895.768 669.685,891.732Z" style="fill:rgb(87,102,127);"/>
                </g>
                <g transform="matrix(0.611351,0,0,0.60864,617.48,-1126.32)">
                    <circle cx="207.035" cy="2059.97" r="13.094" style="stroke:black;stroke-width:1px;"/>
                </g>
                <g transform="matrix(0.739526,0,0,0.736246,438.677,-380.204)">
                    <path d="M545.365,618.65L543.01,618.635C506.159,618.635 470.267,629.801 440.01,650.525C437.569,652.214 435.933,654.834 435.486,657.768C435.039,660.702 435.821,663.69 437.648,666.029C437.637,666.049 437.643,666.055 437.648,666.062C441.185,670.589 447.644,671.561 452.357,668.276C458.525,663.936 465.152,659.856 472.627,656.494C488.357,649.417 507.773,640.701 543.01,640.257L545.086,640.27C632.802,641.381 703.674,712.939 703.674,800.92C703.674,888.901 632.802,960.459 545.086,961.57L543.01,961.583C454.338,961.583 382.347,889.592 382.347,800.92C382.347,776.083 388.105,751.632 399.11,729.468C401.641,724.407 399.792,718.251 394.891,715.421C394.899,715.408 394.899,715.408 394.899,715.407C392.309,713.912 389.213,713.562 386.354,714.442C383.496,715.321 381.132,717.351 379.831,720.044C377.88,723.949 375.832,728.187 374.564,731.252C365.457,753.271 360.725,776.937 360.725,800.92C360.725,901.526 442.405,983.205 543.01,983.205L545.365,983.19C644.885,981.929 725.295,900.741 725.295,800.92C725.295,701.099 644.885,619.91 545.365,618.65Z" style="stroke:black;stroke-width:0.36px;stroke-miterlimit:2;"/>
                </g>
                <g transform="matrix(0.265935,0,0,0.264756,648.601,-472.248)">
                    <path d="M443.07,2602.12L986.222,2457.73L986.222,2640.74L528.181,2759.67L443.07,2602.12Z" style="fill:white;"/>
                </g>
                <g transform="matrix(1.43736,0,0,1.43098,900.543,190.039)">
                    <path d="M0,21.71L-74.991,40.428L-85.266,21.247L0,-0.097L0,21.71ZM-7.765,-11.443L-10.564,-16.693C-16.346,-27.703 -26.814,-33.658 -40.104,-33.658C-44.15,-33.658 -48.456,-33.106 -52.971,-31.978C-68.312,-28.144 -78.384,-19.568 -81.854,-8.099L-70.312,1.704L-70.312,1.379C-70.392,-11.606 -59.227,-17.126 -49.846,-19.471C-46.406,-20.33 -43.129,-20.766 -40.104,-20.766C-31.585,-20.766 -25.486,-17.379 -21.978,-10.699L-21.959,-10.663L-21.94,-10.626L-20.654,-8.216L-104.439,12.757L-81.612,55.368L12.892,31.78L12.892,-16.614L-7.765,-11.443Z" style="fill-rule:nonzero;"/>
                </g>
            </g>
        </g>
    </g>
</svg>
